Patient4_TMGait_0pt7_02_right_32_GRF.mot
version=1
nRows=71
nColumns=19
inDegrees=no
endheader
time	F1x	F1y	F1z	M1x	M1y	M1z	F2x	F2y	F2z	M2x	M2y	M2z	EC1x	EC1y	EC1z	EC2x	EC2y	EC2z
36.04	-1.9918	729.9331	53.6444	-261.7028	-53.8003	750.7155	21.6728	22.5225	18.0274	1.068	-13.6352	13.2655	-0.0592	0.0182	-0.0073	-0.0462	0.0165	0.9585
36.0514	3.2975	728.8427	55.9445	-260.038	-54.4309	753.9315	14.7112	16.4192	12.6641	1.0507	-9.4916	10.3237	-0.0592	0.0182	-0.0073	-0.0462	0.0165	0.9585
36.0629	8.0288	727.1515	57.5334	-258.4073	-54.3842	754.8781	8.8193	11.3393	7.9345	1.117	-5.8396	7.9562	-0.0592	0.0182	-0.0073	-0.0462	0.0165	0.9585
36.0743	11.8015	725.2806	58.4549	-256.9982	-53.8244	753.8792	4.2928	7.5719	4.2117	1.2317	-2.9559	6.3099	-0.0592	0.0182	-0.0073	-0.0462	0.0165	0.9585
36.0857	14.5346	723.8066	58.7117	-255.9926	-52.8251	751.7052	1.1641	5.0383	1.5609	1.3578	-0.90391	5.2722	-0.0592	0.0182	-0.0073	-0.0462	0.0165	0.9585
36.0971	16.2078	723.2661	58.5595	-255.5165	-51.6785	749.2657	-0.81537	3.5633	-0.14083	1.4795	0.42225	4.7739	-0.0592	0.0182	-0.0073	-0.0462	0.0165	0.9585
36.1086	17.0152	724.0442	58.1316	-255.6374	-50.5009	747.2992	-1.8839	2.8196	-1.0892	1.5663	1.1642	4.5638	-0.0592	0.0182	-0.0073	-0.0462	0.0165	0.9585
36.12	17.1663	726.2742	57.6719	-256.3273	-49.4906	746.271	-2.3603	2.5489	-1.4965	1.6043	1.5008	4.5237	-0.0592	0.0182	-0.0073	-0.0462	0.0165	0.9585
36.1314	16.954	729.7822	57.3409	-257.47	-48.7311	746.211	-2.4589	2.4312	-1.5574	1.5571	1.5799	4.3968	-0.0592	0.0182	-0.0073	-0.0462	0.0165	0.9585
36.1429	16.6901	734.2392	57.2467	-258.9059	-48.2396	746.9223	-2.3975	2.2386	-1.4195	1.395	1.5259	4.0459	-0.0592	0.0182	-0.0073	-0.0462	0.0165	0.9585
36.1543	16.6565	739.1604	57.469	-260.4462	-48.0039	747.9603	-2.2607	1.7307	-1.2061	1.0733	1.4255	3.2361	-0.0592	0.0182	-0.0073	-0.0462	0.0165	0.9585
36.1657	17.1228	744.0822	57.9618	-261.9218	-47.8919	748.8622	-2.1402	0.75935	-0.98387	0.56074	1.3308	1.8467	-0.0592	0.0182	-0.0073	-0.0462	0.0165	0.9585
36.1771	18.2947	748.5588	58.7229	-263.1781	-47.8291	749.1766	-1.9986	-0.80456	-0.8073	-0.17176	1.2586	-0.26762	-0.0592	0.0182	-0.0073	-0.0462	0.0165	0.9585
36.1886	20.3296	752.2328	59.6545	-264.0959	-47.6671	748.4935	-1.8232	-2.9122	-0.67981	-1.1014	1.1873	-3.0252	-0.0592	0.0182	-0.0073	-0.0462	0.0165	0.9585
36.2	23.297	754.8458	60.7517	-264.5851	-47.3693	746.5539	-1.4872	-5.3962	-0.60352	-2.1553	1.0685	-6.2348	-0.0592	0.0182	-0.0073	-0.0462	0.0165	0.9585
36.2114	27.2311	756.2542	61.9626	-264.5972	-46.8735	743.2064	-0.88176	-7.7979	-0.56559	-3.1524	0.83979	-9.3257	-0.0592	0.0182	-0.0073	-0.0462	0.0165	0.9585
36.2229	32.0386	756.4381	63.2667	-264.1249	-46.1773	738.4403	0.17869	-9.3583	-0.54664	-3.7872	0.41951	-11.3858	-0.0592	0.0182	-0.0073	-0.0462	0.0165	0.9585
36.2343	37.6434	755.4654	64.6123	-263.1964	-45.2542	732.3414	1.8155	-8.8732	-0.51661	-3.5802	-0.26749	-10.9298	-0.0592	0.0182	-0.0073	-0.0462	0.0165	0.9585
36.2457	43.8247	753.4739	65.9154	-261.8691	-44.0878	725.0967	4.1769	-4.6903	-0.4374	-1.8668	-1.3035	-5.9328	-0.0592	0.0182	-0.0073	-0.0462	0.0165	0.9585
36.2571	50.3821	750.595	67.0893	-260.2078	-42.665	716.8936	7.2505	5.2715	-0.26786	2.1958	-2.723	6.1831	-0.0592	0.0182	-0.0073	-0.0462	0.0165	0.9585
36.2686	57.0403	746.8972	67.9724	-258.2638	-40.921	707.9152	10.9014	23.3592	0.037985	9.5614	-4.502	28.324	-0.0592	0.0182	-0.0073	-0.0462	0.0165	0.9585
36.28	63.5679	742.2323	68.4146	-256.0209	-38.8008	698.1207	14.6361	51.7895	0.52782	21.1315	-6.4813	63.2727	-0.0592	0.0182	-0.0073	-0.0462	0.0165	0.9585
36.2914	69.7123	736.1384	68.2413	-253.3561	-36.2331	687.221	17.5688	91.9765	1.2325	37.4821	-8.3173	112.8026	-0.0592	0.0182	-0.0073	-0.0462	0.0165	0.9585
36.3029	75.2877	727.7353	67.2871	-250.0002	-33.1437	674.4937	18.2291	143.4913	2.138	58.4411	-9.3971	176.4528	-0.0592	0.0182	-0.0073	-0.0462	0.0165	0.9585
36.3143	80.0185	715.7247	65.4332	-245.5281	-29.5249	658.8719	14.8333	202.8816	3.1736	82.6166	-8.9471	250.0527	-0.0592	0.0182	-0.0073	-0.0462	0.0165	0.9585
36.3257	83.6824	698.449	62.5624	-239.3841	-25.3699	638.9334	6.5574	263.2197	4.1177	107.1858	-6.3989	325.1209	-0.0592	0.0182	-0.0073	-0.0462	0.0165	0.9585
36.3371	85.9616	674.1957	58.6856	-230.9737	-20.8337	613.2334	-4.8505	315.4909	4.0019	128.4747	-1.3861	390.4603	-0.0592	0.0182	-0.0073	-0.0462	0.0165	0.9585
36.3486	86.5961	641.5873	53.881	-219.809	-16.1168	580.5735	-16.6432	353.8842	2.1157	144.0879	5.7302	438.6425	-0.0592	0.0182	-0.0073	-0.0462	0.0165	0.9585
36.36	85.3563	600.1265	48.3978	-205.6739	-11.5494	540.5991	-27.2529	379.0031	-0.92305	154.2418	13.6562	470.1123	-0.0592	0.0182	-0.0073	-0.0462	0.0165	0.9585
36.3714	82.1991	550.2272	42.5833	-188.6619	-7.4623	493.6769	-36.1684	395.9964	-4.8018	160.9902	21.8152	491.1271	-0.0592	0.0182	-0.0073	-0.0462	0.0165	0.9585
36.3829	77.1243	493.2821	36.758	-169.2047	-4.1317	441.0827	-43.3402	411.0796	-8.8457	166.8579	29.4655	509.337	-0.0592	0.0182	-0.0073	-0.0462	0.0165	0.9585
36.3943	70.2474	431.4361	31.1258	-148.023	-1.6827	384.6891	-49.0663	429.1639	-12.8704	173.8308	36.5061	530.8463	-0.0592	0.0182	-0.0073	-0.0462	0.0165	0.9585
36.4057	61.734	367.4252	25.779	-126.0559	-0.11915	326.9148	-53.5907	453.0148	-16.7626	183.0249	42.9294	558.9957	-0.0592	0.0182	-0.0073	-0.0462	0.0165	0.9585
36.4171	52.0562	304.1599	20.8311	-104.322	0.64148	270.2328	-57.0829	483.6191	-20.7408	194.81	49.067	594.9257	-0.0592	0.0182	-0.0073	-0.0462	0.0165	0.9585
36.4286	41.8377	244.4461	16.3564	-83.799	0.78498	217.044	-59.6326	520.77	-25.195	209.0544	55.404	638.3458	-0.0592	0.0182	-0.0073	-0.0462	0.0165	0.9585
36.44	31.8821	190.4393	12.5032	-65.2431	0.49014	169.0951	-61.3294	563.0105	-30.3328	225.1296	62.2355	687.4905	-0.0592	0.0182	-0.0073	-0.0462	0.0165	0.9585
36.4514	22.8472	143.5162	9.3134	-49.1281	-0.022337	127.545	-62.4384	607.7828	-36.3737	241.986	69.8689	739.3519	-0.0592	0.0182	-0.0073	-0.0462	0.0165	0.9585
36.4629	15.2223	104.1226	6.8127	-35.6101	-0.59868	92.6823	-63.1952	652.1577	-43.0679	258.4636	78.1008	790.4509	-0.0592	0.0182	-0.0073	-0.0462	0.0165	0.9585
36.4743	9.1248	72.1339	4.9045	-24.6395	-1.111	64.4016	-63.72	693.5801	-50.1638	273.5695	86.6272	837.7757	-0.0592	0.0182	-0.0073	-0.0462	0.0165	0.9585
36.4857	4.5857	46.9977	3.4981	-16.0243	-1.4929	42.1756	-63.954	730.1463	-56.9993	286.6112	94.6632	879.0334	-0.0592	0.0182	-0.0073	-0.0462	0.0165	0.9585
36.4971	1.4219	28.0499	2.4145	-9.5313	-1.6603	25.4513	-63.7743	760.5818	-63.2148	297.1347	101.6979	912.704	-0.0592	0.0182	-0.0073	-0.0462	0.0165	0.9585
36.5086	-0.47187	14.5133	1.5663	-4.8945	-1.591	13.4932	-63.0361	784.0716	-68.3633	304.8882	107.1605	937.7831	-0.0592	0.0182	-0.0073	-0.0462	0.0165	0.9585
36.52	-1.3758	5.5894	0.86447	-1.8373	-1.298	5.6254	-61.6652	800.3415	-72.3034	309.8048	110.8527	953.9748	-0.0592	0.0182	-0.0073	-0.0462	0.0165	0.9585
36.5314	-1.5617	0.33827	0.34196	-0.039375	-0.91389	0.95256	-59.6386	809.4408	-74.9889	311.9493	112.7317	961.3635	-0.0592	0.0182	-0.0073	-0.0462	0.0165	0.9585
36.5429	-1.3882	-2.187	0.00044672	0.82424	-0.56036	-1.3036	-57.0352	811.726	-76.5234	311.4949	112.9641	960.4352	-0.0592	0.0182	-0.0073	-0.0462	0.0165	0.9585
36.5543	-1.0026	-2.931	-0.19469	1.0688	-0.26703	-2.0173	-53.9226	807.8409	-77.0891	308.7297	111.8068	951.9993	-0.0592	0.0182	-0.0073	-0.0462	0.0165	0.9585
36.5657	-0.61484	-2.5887	-0.27391	0.93844	-0.070964	-1.7405	-50.4393	798.7969	-76.8124	304.0811	109.4846	937.3075	-0.0592	0.0182	-0.0073	-0.0462	0.0165	0.9585
36.5771	-0.22292	-1.737	-0.28128	0.62685	0.056497	-1.0287	-46.6828	785.8985	-75.9047	298.0773	106.2955	917.9226	-0.0592	0.0182	-0.0073	-0.0462	0.0165	0.9585
36.5886	0.056165	-0.69944	-0.23808	0.25182	0.10448	-0.11745	-42.7911	770.571	-74.4865	291.28	102.4589	895.5379	-0.0592	0.0182	-0.0073	-0.0462	0.0165	0.9585
36.6	0.29576	0.27627	-0.17267	-0.10574	0.11601	0.73026	-38.8524	754.0965	-72.7721	284.1829	98.2676	871.6661	-0.0592	0.0182	-0.0073	-0.0462	0.0165	0.9585
36.6114	0.43036	1.1107	-0.10241	-0.41067	0.093993	1.4945	-34.9659	737.5374	-70.8854	277.1865	93.9168	847.5619	-0.0592	0.0182	-0.0073	-0.0462	0.0165	0.9585
36.6229	0.53821	1.7412	-0.041698	-0.64149	0.074293	2.071	-31.1743	721.6388	-69.0024	270.5672	89.6296	824.0937	-0.0592	0.0182	-0.0073	-0.0462	0.0165	0.9585
36.6343	0.58134	2.1929	0.0037042	-0.80254	0.05269	2.5198	-27.4734	706.947	-67.2308	264.5232	85.5306	801.8916	-0.0592	0.0182	-0.0073	-0.0462	0.0165	0.9585
36.6457	0.62729	2.464	0.040206	-0.89726	0.037375	2.7842	-23.7772	693.8833	-65.6395	259.2066	81.675	781.4197	-0.0592	0.0182	-0.0073	-0.0462	0.0165	0.9585
36.6571	0.62318	2.5749	0.07837	-0.92853	0.0065928	2.9213	-19.9583	682.8377	-64.2268	254.7629	78.0223	763.0958	-0.0592	0.0182	-0.0073	-0.0462	0.0165	0.9585
36.6686	0.63583	2.4825	0.12616	-0.88809	-0.033399	2.8402	-15.8399	674.2193	-62.9326	251.3461	74.4525	747.3351	-0.0592	0.0182	-0.0073	-0.0462	0.0165	0.9585
36.68	0.61846	2.1566	0.18994	-0.76359	-0.10298	2.5143	-11.2556	668.4374	-61.6963	249.1092	70.8396	734.5476	-0.0592	0.0182	-0.0073	-0.0462	0.0165	0.9585
36.6914	0.62552	1.5177	0.27718	-0.52801	-0.19871	1.7955	-6.0709	665.9058	-60.4589	248.2019	67.0733	725.1311	-0.0592	0.0182	-0.0073	-0.0462	0.0165	0.9585
36.7029	0.61429	0.51995	0.37755	-0.15789	-0.32409	0.62966	-0.24936	667.0051	-59.2574	248.7526	63.1713	719.4681	-0.0592	0.0182	-0.0073	-0.0462	0.0165	0.9585
36.7143	0.61381	-0.89744	0.492	0.36572	-0.46987	-1.1122	6.082	671.9836	-58.1497	250.8382	59.2267	717.8181	-0.0592	0.0182	-0.0073	-0.0462	0.0165	0.9585
36.7257	0.58788	-2.6938	0.57833	1.0263	-0.59343	-3.3701	12.671	680.8632	-57.2696	254.4405	55.4535	720.2156	-0.0592	0.0182	-0.0073	-0.0462	0.0165	0.9585
36.7371	0.55693	-4.7802	0.61347	1.7814	-0.645	-6.0482	19.1701	693.3396	-56.7018	259.4226	52.0467	726.374	-0.0592	0.0182	-0.0073	-0.0462	0.0165	0.9585
36.7486	0.49856	-6.8333	0.49783	2.5105	-0.5113	-8.7249	25.285	708.7942	-56.5245	265.5253	49.1786	735.6947	-0.0592	0.0182	-0.0073	-0.0462	0.0165	0.9585
36.76	0.44468	-8.3347	0.1527	3.0192	-0.073069	-10.7475	30.7678	726.2869	-56.7465	272.3713	46.9317	747.2612	-0.0592	0.0182	-0.0073	-0.0462	0.0165	0.9585
36.7714	0.39339	-8.3789	-0.57976	2.9826	0.86002	-10.9572	35.4965	744.6084	-57.3293	279.4822	45.3039	759.8883	-0.0592	0.0182	-0.0073	-0.0462	0.0165	0.9585
36.7829	0.39551	-5.7486	-1.8153	1.9609	2.4582	-7.7972	39.4276	762.3118	-58.2276	286.2915	44.2567	772.1693	-0.0592	0.0182	-0.0073	-0.0462	0.0165	0.9585
36.7943	0.47787	1.2137	-3.6958	-0.63623	4.8982	0.84923	42.6389	777.7998	-59.3497	292.185	43.669	782.5167	-0.0592	0.0182	-0.0073	-0.0462	0.0165	0.9585
36.8057	0.70724	14.3885	-6.2597	-5.4765	8.2488	17.3709	45.2138	789.5511	-60.5995	296.5775	43.4111	789.4461	-0.0592	0.0182	-0.0073	-0.0462	0.0165	0.9585
36.8171	1.1361	35.6874	-9.4378	-13.2255	12.4189	44.2285	47.2703	796.1374	-61.8017	298.9394	43.273	791.5443	-0.0592	0.0182	-0.0073	-0.0462	0.0165	0.9585
36.8286	1.8346	66.5062	-12.9007	-24.3483	16.9957	83.2086	48.8534	796.3797	-62.7608	298.8414	43.0599	787.6877	-0.0592	0.0182	-0.0073	-0.0462	0.0165	0.9585
36.84	2.8104	106.9805	-15.9848	-38.8436	21.1124	134.5292	50.0188	789.354	-63.2111	295.9662	42.5125	776.9785	-0.0592	0.0182	-0.0073	-0.0462	0.0165	0.9585
